<svg width="340" height="330" viewBox="0 0 340 330" fill="none" xmlns="http://www.w3.org/2000/svg">
<g clip-path="url(#clip0_2199_613)">
<path d="M22.8142 275.836C35.4141 275.836 45.6283 265.634 45.6283 253.051C45.6283 240.467 35.4141 230.266 22.8142 230.266C10.2143 230.266 0 240.467 0 253.051C0 265.634 10.2143 275.836 22.8142 275.836Z" fill="url(#paint0_linear_2199_613)"/>
<path d="M52.3436 101.489C57.5636 101.489 61.7953 97.2624 61.7953 92.049C61.7953 86.8357 57.5636 82.6094 52.3436 82.6094C47.1235 82.6094 42.8918 86.8357 42.8918 92.049C42.8918 97.2624 47.1235 101.489 52.3436 101.489Z" fill="url(#paint1_linear_2199_613)"/>
<path d="M335.037 195.962C341.668 189.338 341.668 178.599 335.037 171.976C328.405 165.353 317.652 165.353 311.02 171.976C304.388 178.599 304.388 189.338 311.02 195.962C317.652 202.585 328.405 202.585 335.037 195.962Z" fill="url(#paint2_linear_2199_613)"/>
<path opacity="0.8" d="M327.365 252.668C320.572 253.995 313.139 251.873 310.868 247.938C308.598 244.003 312.246 239.739 319.068 238.411C325.89 237.084 333.294 239.206 335.565 243.151C337.836 247.095 334.197 251.33 327.365 252.668Z" fill="#0C0F38"/>
<path opacity="0.8" d="M23.0859 329.996C33.1079 329.996 41.2324 325.31 41.2324 319.529C41.2324 313.749 33.1079 309.062 23.0859 309.062C13.0638 309.062 4.93933 313.749 4.93933 319.529C4.93933 325.31 13.0638 329.996 23.0859 329.996Z" fill="#0C0F38"/>
<path opacity="0.8" d="M52.3436 130.388C55.9397 130.388 58.855 128.704 58.855 126.628C58.855 124.551 55.9397 122.867 52.3436 122.867C48.7474 122.867 45.8322 124.551 45.8322 126.628C45.8322 128.704 48.7474 130.388 52.3436 130.388Z" fill="#0C0F38"/>
<g style="mix-blend-mode:lighten" opacity="0.8">
<path d="M117.176 52.7901C117.174 53.267 117.031 53.7326 116.764 54.1282C116.498 54.5237 116.119 54.8315 115.678 55.0127C115.236 55.1939 114.751 55.2403 114.282 55.1461C113.814 55.0519 113.385 54.8213 113.048 54.4834C112.711 54.1455 112.482 53.7155 112.389 53.2476C112.297 52.7798 112.345 52.2951 112.528 51.8547C112.712 51.4143 113.021 51.038 113.418 50.7732C113.816 50.5085 114.282 50.3672 114.76 50.3672C115.078 50.3672 115.393 50.4299 115.687 50.5518C115.981 50.6737 116.247 50.8523 116.472 51.0774C116.696 51.3025 116.874 51.5697 116.995 51.8636C117.116 52.1575 117.177 52.4724 117.176 52.7901Z" fill="#D4088C"/>
</g>
<g style="mix-blend-mode:lighten" opacity="0.8">
<path d="M72.3339 301.53C73.9471 301.53 75.2548 300.224 75.2548 298.612C75.2548 297.001 73.9471 295.695 72.3339 295.695C70.7207 295.695 69.413 297.001 69.413 298.612C69.413 300.224 70.7207 301.53 72.3339 301.53Z" fill="#D4088C"/>
</g>
<g style="mix-blend-mode:lighten">
<path d="M55.3421 285.711C55.344 286.009 55.2574 286.3 55.0933 286.548C54.9292 286.797 54.695 286.991 54.4203 287.106C54.1456 287.221 53.8429 287.252 53.5505 287.195C53.2581 287.139 52.9892 286.996 52.7779 286.787C52.5665 286.577 52.4223 286.309 52.3635 286.018C52.3047 285.726 52.3339 285.423 52.4474 285.148C52.561 284.873 52.7538 284.638 53.0013 284.473C53.2489 284.307 53.5401 284.219 53.838 284.219C54.035 284.218 54.2304 284.255 54.4128 284.33C54.5953 284.404 54.7612 284.514 54.901 284.652C55.0408 284.791 55.1517 284.956 55.2274 285.138C55.3031 285.32 55.3421 285.514 55.3421 285.711Z" fill="#6EE8FC"/>
</g>
<g style="mix-blend-mode:lighten">
<path d="M310.16 230.379C310.16 230.686 310.069 230.985 309.898 231.24C309.728 231.495 309.485 231.694 309.202 231.811C308.918 231.929 308.606 231.96 308.305 231.9C308.003 231.84 307.727 231.692 307.51 231.475C307.292 231.258 307.145 230.982 307.085 230.681C307.025 230.381 307.055 230.069 307.173 229.785C307.291 229.502 307.49 229.26 307.745 229.089C308 228.919 308.3 228.828 308.607 228.828C308.812 228.827 309.014 228.866 309.203 228.944C309.392 229.021 309.564 229.135 309.708 229.279C309.853 229.424 309.967 229.595 310.045 229.784C310.122 229.973 310.161 230.175 310.16 230.379Z" fill="#6EE8FC"/>
</g>
<g style="mix-blend-mode:lighten">
<path d="M23.0762 125.759C23.0762 126.19 22.9481 126.612 22.7082 126.97C22.4683 127.329 22.1273 127.608 21.7283 127.773C21.3293 127.938 20.8903 127.982 20.4668 127.897C20.0432 127.813 19.6542 127.606 19.3488 127.301C19.0435 126.996 18.8356 126.607 18.7513 126.184C18.6671 125.761 18.7103 125.323 18.8756 124.924C19.0408 124.526 19.3207 124.185 19.6797 123.946C20.0388 123.706 20.4609 123.578 20.8927 123.578C21.4718 123.578 22.0272 123.808 22.4367 124.217C22.8461 124.626 23.0762 125.18 23.0762 125.759Z" fill="#6EE8FC"/>
</g>
<g style="mix-blend-mode:lighten">
<path d="M186.308 46.2353C186.308 46.6666 186.18 47.0882 185.94 47.4468C185.7 47.8054 185.359 48.0849 184.96 48.2499C184.561 48.415 184.122 48.4582 183.698 48.374C183.275 48.2899 182.886 48.0822 182.58 47.7772C182.275 47.4723 182.067 47.0837 181.983 46.6607C181.899 46.2377 181.942 45.7993 182.107 45.4008C182.272 45.0024 182.552 44.6618 182.911 44.4222C183.27 44.1826 183.692 44.0547 184.124 44.0547C184.703 44.0547 185.259 44.2844 185.668 44.6934C186.078 45.1023 186.308 45.657 186.308 46.2353Z" fill="#6EE8FC"/>
</g>
<g style="mix-blend-mode:lighten">
<path d="M31.9747 120.93C31.9747 121.17 31.9036 121.404 31.7703 121.603C31.637 121.803 31.4475 121.958 31.2259 122.049C31.0043 122.141 30.7604 122.165 30.5251 122.118C30.2898 122.072 30.0736 121.956 29.904 121.787C29.7343 121.617 29.6188 121.402 29.572 121.167C29.5252 120.932 29.5492 120.688 29.641 120.467C29.7328 120.245 29.8883 120.056 30.0878 119.923C30.2873 119.79 30.5218 119.719 30.7617 119.719C30.9214 119.717 31.0797 119.748 31.2274 119.808C31.3752 119.869 31.5094 119.958 31.6223 120.071C31.7352 120.183 31.8245 120.318 31.885 120.465C31.9455 120.613 31.976 120.771 31.9747 120.93Z" fill="#6EE8FC"/>
</g>
<g style="mix-blend-mode:lighten">
<path d="M240.155 53.995C240.157 54.2791 240.075 54.5573 239.918 54.7945C239.761 55.0316 239.538 55.217 239.276 55.327C239.013 55.4371 238.724 55.4669 238.445 55.4126C238.166 55.3584 237.909 55.2226 237.707 55.0224C237.505 54.8221 237.367 54.5666 237.311 54.2881C237.255 54.0096 237.283 53.7207 237.391 53.458C237.5 53.1954 237.684 52.9708 237.92 52.8127C238.157 52.6547 238.435 52.5703 238.719 52.5703C239.098 52.5703 239.462 52.7201 239.731 52.987C240 53.2539 240.153 53.6162 240.155 53.995Z" fill="#D4088C"/>
</g>
<path d="M30.3154 197.291L29.7914 195.42L33.9447 194.257L32.7802 190.109L34.6531 189.586L36.3416 195.604L30.3154 197.291Z" fill="#6EE1F8"/>
<path d="M26.6473 203.799L26.1233 201.928L30.2766 200.765L29.1218 196.617L30.985 196.094L32.6735 202.112L26.6473 203.799Z" fill="#6EE1F8"/>
<path d="M30.5385 201.705L28.8597 195.686L34.8859 194L35.4003 195.87L31.2469 197.033L32.4114 201.182L30.5385 201.705Z" fill="#6EE1F8"/>
<path d="M173.857 58.6249C172.945 58.6249 172.052 58.3548 171.293 57.8487C170.534 57.3427 169.942 56.6233 169.592 55.7815C169.242 54.9397 169.149 54.0131 169.326 53.1188C169.502 52.2244 169.94 51.4024 170.584 50.7565C171.228 50.1105 172.05 49.6696 172.944 49.4895C173.839 49.3093 174.767 49.3979 175.612 49.7441C176.456 50.0903 177.179 50.6785 177.689 51.4346C178.198 52.1907 178.473 53.0807 178.476 53.9923C178.479 54.5997 178.361 55.2017 178.13 55.7636C177.899 56.3256 177.56 56.8364 177.13 57.2668C176.701 57.6973 176.191 58.0388 175.63 58.2719C175.068 58.5049 174.466 58.6249 173.857 58.6249ZM173.857 51.3368C173.327 51.3368 172.808 51.4942 172.367 51.7889C171.927 52.0837 171.583 52.5026 171.381 52.9925C171.179 53.4824 171.127 54.0213 171.232 54.5407C171.337 55.0601 171.594 55.5366 171.97 55.9099C172.347 56.2833 172.826 56.5365 173.347 56.6375C173.868 56.7385 174.407 56.6828 174.896 56.4773C175.385 56.2719 175.802 55.926 176.094 55.4836C176.386 55.0412 176.54 54.5221 176.536 53.9923C176.528 53.287 176.243 52.6131 175.742 52.1162C175.24 51.6192 174.564 51.3393 173.857 51.3368Z" fill="#6EE1F8"/>
<path d="M275.177 289.444L269.937 284.21L275.177 278.977L280.417 284.21L275.177 289.444ZM272.683 284.21L275.177 286.71L277.681 284.21L275.177 281.748L272.683 284.21Z" fill="#6EE1F8"/>
<path d="M287.67 98.3638L286.298 99.7344L291.911 105.34L293.283 103.97L287.67 98.3638Z" fill="#D4088C"/>
<path d="M291.911 98.3708L286.298 103.977L287.67 105.347L293.283 99.7414L291.911 98.3708Z" fill="#D4088C"/>
<path d="M167.443 323.186C163.629 323.29 159.851 322.42 156.468 320.656L67.1907 269.145C64.2795 267.459 62.6589 265.104 62.6589 262.516C62.6589 259.434 64.9588 256.333 68.9666 254.026L154.711 204.599C162.174 200.296 173.498 199.84 179.942 203.572L269.219 255.063C272.13 256.75 273.751 259.105 273.751 261.692C273.751 264.784 271.451 267.876 267.443 270.192L181.698 319.639C177.325 322.01 172.419 323.23 167.443 323.186ZM168.928 202.04C164.118 201.999 159.376 203.179 155.148 205.471L69.4032 254.899C65.6963 257.031 63.5808 259.822 63.5808 262.555C63.5808 264.784 65.017 266.839 67.6274 268.37L156.904 319.871C163.105 323.448 174.003 322.992 181.165 318.844L266.909 269.417C270.616 267.285 272.732 264.493 272.732 261.76C272.732 259.531 271.296 257.477 268.685 255.945L179.408 204.454C176.18 202.759 172.573 201.915 168.928 202.002V202.04Z" fill="url(#paint3_linear_2199_613)"/>
<path opacity="0.8" d="M159.689 305.066L93.7021 267.017C89.0053 264.313 89.5972 259.583 95.0121 256.463L158.379 219.925C163.794 216.805 171.965 216.465 176.681 219.169L242.669 257.219C247.365 259.923 246.773 264.652 241.359 267.773L178.001 304.31C172.576 307.431 164.386 307.77 159.689 305.066Z" fill="#0C0F38"/>
<path d="M250.461 145.654H215.788L177.186 123.364C172.217 120.456 163.532 120.863 157.778 124.168L120.563 145.654H85.9195V242.668C85.7836 244.606 86.8899 246.476 89.2479 247.853L159.175 288.17C164.144 291.077 172.829 290.68 178.583 287.365L245.745 248.657C248.724 246.942 250.315 244.78 250.471 242.668L250.461 145.654Z" fill="url(#paint4_linear_2199_613)"/>
<path d="M94.7016 145.656H85.968V242.669C85.9259 243.393 86.0471 244.118 86.3225 244.788C86.598 245.459 87.0207 246.06 87.5594 246.546C86.8585 245.636 86.5135 244.503 86.589 243.358V146.335H95.4682C95.1674 146.063 94.9345 145.869 94.7016 145.656Z" fill="#D4088C"/>
<path d="M239.369 145.656L239.166 146.238H249.84V243.251C249.664 244.729 248.978 246.1 247.899 247.128C249.3 246.035 250.216 244.438 250.451 242.679V145.656H239.369Z" fill="#6DE0F6"/>
<g style="mix-blend-mode:lighten" opacity="0.5">
<path d="M110.422 260.059V147.539H97.8263V252.8L110.422 260.059Z" fill="#D4088C"/>
</g>
<g style="mix-blend-mode:lighten" opacity="0.3">
<path d="M118.147 264.512V155.094H114.711V262.525L118.147 264.512Z" fill="#D4088C"/>
</g>
<g style="mix-blend-mode:lighten" opacity="0.15">
<path d="M124.309 268.062V156.414H120.873V266.085L124.309 268.062Z" fill="#D4088C"/>
</g>
<path d="M159.185 191.168L89.2576 150.842C84.2891 147.934 84.9102 142.972 90.655 139.657L157.787 100.949C163.532 97.6442 172.217 97.276 177.195 100.145L247.123 140.462C252.091 143.369 251.47 148.341 245.725 151.646L178.593 190.413C172.838 193.669 164.153 194.027 159.185 191.168Z" fill="url(#paint5_linear_2199_613)"/>
<path d="M159.952 191.166L90.0825 150.839C85.1044 147.931 85.7351 142.969 91.4702 139.655L158.612 100.946C161.652 99.2857 165.038 98.3596 168.501 98.2422C164.773 98.2422 161.104 99.1716 157.826 100.946L90.6939 139.655C84.9491 142.969 84.3281 147.98 89.2965 150.839L159.224 191.166C162.154 192.675 165.445 193.346 168.734 193.104C165.687 193.238 162.658 192.569 159.952 191.166Z" fill="#D4088C"/>
<path d="M247.113 140.46L177.186 100.143C174.252 98.6336 170.958 97.9629 167.666 98.2044C170.661 98.0978 173.633 98.7654 176.293 100.143L246.211 140.46C251.189 143.367 250.558 148.339 244.823 151.644L177.691 190.411C174.654 192.069 171.271 192.996 167.812 193.114C171.572 193.127 175.276 192.197 178.583 190.411L245.716 151.644C251.461 148.339 252.082 143.329 247.113 140.46Z" fill="#6DE0F6"/>
<path d="M161.485 179.539L109.423 149.495C105.725 147.353 106.191 143.68 110.461 141.16L160.446 112.347C164.716 109.875 171.189 109.614 174.886 111.746L226.948 141.79C230.645 143.922 230.18 147.605 225.91 150.115L175.924 178.938C171.655 181.399 165.201 181.671 161.485 179.539Z" fill="#6DE0F6"/>
<path d="M110.461 146.798L160.446 117.956C164.716 115.494 171.189 115.223 174.886 117.365L226.948 147.409C227.393 147.664 227.806 147.97 228.18 148.32C230.17 146.081 229.82 143.474 226.948 141.798L174.886 111.754C171.189 109.621 164.716 109.883 160.446 112.354L110.461 141.216C106.744 143.358 105.919 146.459 108.19 148.63C108.845 147.903 109.612 147.285 110.461 146.798Z" fill="#267FE5"/>
<path d="M180.573 198.045L239.767 163.872C240.062 163.659 240.304 163.379 240.472 163.056C240.641 162.733 240.732 162.376 240.738 162.012V161.042C240.738 160.316 240.291 159.986 239.767 160.296L180.573 194.469C180.277 194.684 180.035 194.965 179.866 195.29C179.698 195.614 179.607 195.974 179.602 196.339V197.308C179.593 198.026 180.039 198.394 180.573 198.045Z" fill="#6DE0F6"/>
<path d="M238.428 163.139C238.726 162.925 238.969 162.644 239.137 162.319C239.306 161.994 239.395 161.634 239.398 161.268V160.483L239.719 160.299C240.252 159.989 240.689 160.299 240.689 161.045V162.014C240.683 162.379 240.592 162.736 240.424 163.059C240.255 163.382 240.014 163.662 239.719 163.875L180.524 198.048C179.99 198.358 179.554 198.048 179.554 197.311V197.127L238.428 163.139Z" fill="#267FE5"/>
<path d="M180.573 208.444L239.767 174.271C240.063 174.056 240.305 173.775 240.473 173.45C240.642 173.125 240.732 172.766 240.738 172.4V171.431C240.738 170.714 240.291 170.385 239.767 170.695L180.573 204.858C180.278 205.074 180.038 205.356 179.869 205.68C179.701 206.004 179.61 206.363 179.602 206.728V207.697C179.593 208.424 180.039 208.754 180.573 208.444Z" fill="#6DE0F6"/>
<path d="M238.428 173.537C238.724 173.323 238.967 173.042 239.135 172.717C239.304 172.392 239.394 172.033 239.398 171.667V170.882L239.719 170.698C240.252 170.388 240.689 170.698 240.689 171.434V172.403C240.684 172.769 240.593 173.128 240.425 173.453C240.256 173.778 240.015 174.059 239.719 174.274L180.524 208.447C179.99 208.757 179.554 208.447 179.554 207.7V207.526L238.428 173.537Z" fill="#267FE5"/>
<path d="M180.573 218.837L239.767 184.674C240.063 184.458 240.304 184.177 240.472 183.852C240.641 183.528 240.732 183.169 240.738 182.803V181.834C240.738 181.117 240.291 180.778 239.767 181.097L180.573 215.26C180.277 215.476 180.036 215.757 179.867 216.082C179.699 216.406 179.608 216.765 179.602 217.131V218.1C179.593 218.817 180.039 219.156 180.573 218.837Z" fill="#6DE0F6"/>
<path d="M238.428 183.94C238.724 183.725 238.966 183.444 239.134 183.119C239.303 182.794 239.393 182.435 239.398 182.069V181.275L239.719 181.1C240.252 180.78 240.689 181.1 240.689 181.837V182.806C240.683 183.171 240.592 183.531 240.424 183.855C240.255 184.18 240.014 184.461 239.719 184.676L180.524 218.839C179.99 219.159 179.554 218.839 179.554 218.103V217.919L238.428 183.94Z" fill="#267FE5"/>
<path d="M180.573 229.233L239.767 195.07C240.062 194.853 240.302 194.572 240.47 194.247C240.639 193.923 240.73 193.564 240.738 193.199V192.23C240.738 191.503 240.291 191.174 239.767 191.484L180.573 225.656C180.277 225.872 180.035 226.153 179.866 226.477C179.698 226.802 179.607 227.161 179.602 227.527V228.496C179.593 229.213 180.039 229.543 180.573 229.233Z" fill="#6DE0F6"/>
<path d="M238.428 194.326C238.726 194.113 238.969 193.832 239.137 193.507C239.306 193.182 239.395 192.822 239.398 192.456V191.671L239.719 191.487C240.252 191.176 240.689 191.487 240.689 192.233V193.202C240.681 193.567 240.59 193.926 240.422 194.25C240.254 194.574 240.013 194.856 239.719 195.072L180.524 229.235C179.99 229.546 179.554 229.235 179.554 228.499V228.315L238.428 194.326Z" fill="#267FE5"/>
<path d="M180.573 239.639L239.767 205.466C240.063 205.251 240.305 204.97 240.473 204.645C240.642 204.321 240.732 203.961 240.738 203.596V202.627C240.738 201.909 240.291 201.58 239.767 201.89L180.573 236.063C180.277 236.276 180.036 236.556 179.867 236.879C179.699 237.202 179.608 237.559 179.602 237.924V238.893C179.593 239.62 180.039 239.949 180.573 239.639Z" fill="#6DE0F6"/>
<path d="M238.428 204.725C238.724 204.51 238.967 204.229 239.135 203.904C239.304 203.58 239.394 203.22 239.398 202.854V202.069L239.719 201.885C240.252 201.575 240.689 201.885 240.689 202.622V203.591C240.684 203.956 240.593 204.316 240.425 204.641C240.256 204.965 240.015 205.246 239.719 205.461L180.524 239.634C179.99 239.944 179.554 239.634 179.554 238.888V238.713L238.428 204.725Z" fill="#267FE5"/>
<path d="M180.573 250.037L239.767 215.865C240.063 215.649 240.304 215.368 240.472 215.043C240.641 214.719 240.732 214.36 240.738 213.994V213.025C240.738 212.308 240.291 211.978 239.767 212.289L180.573 246.451C180.278 246.668 180.038 246.95 179.869 247.274C179.701 247.598 179.61 247.957 179.602 248.322V249.291C179.593 250.018 180.039 250.348 180.573 250.037Z" fill="#6DE0F6"/>
<path d="M238.428 215.123C238.724 214.909 238.967 214.628 239.135 214.303C239.304 213.978 239.394 213.619 239.398 213.253V212.468L239.719 212.284C240.252 211.973 240.689 212.284 240.689 213.02V213.989C240.683 214.355 240.592 214.714 240.424 215.038C240.255 215.363 240.014 215.644 239.719 215.86L180.524 250.033C179.99 250.343 179.554 250.033 179.554 249.286V249.112L238.428 215.123Z" fill="#267FE5"/>
<path d="M180.573 260.42L239.767 226.257C240.063 226.041 240.304 225.76 240.472 225.436C240.641 225.111 240.732 224.752 240.738 224.387V223.417C240.738 222.691 240.291 222.361 239.767 222.671L180.573 256.844C180.277 257.06 180.036 257.341 179.867 257.665C179.699 257.99 179.608 258.349 179.602 258.714V259.684C179.593 260.42 180.039 260.73 180.573 260.42Z" fill="#6DE0F6"/>
<path d="M238.428 225.537C238.724 225.325 238.967 225.045 239.135 224.722C239.304 224.399 239.394 224.041 239.398 223.676V222.882L239.719 222.697C240.252 222.387 240.689 222.697 240.689 223.444V224.413C240.681 224.778 240.59 225.137 240.422 225.461C240.254 225.785 240.013 226.067 239.719 226.283L180.524 260.446C179.99 260.757 179.554 260.446 179.554 259.71V259.526L238.428 225.537Z" fill="#267FE5"/>
<path d="M180.573 270.826L239.767 236.654C240.062 236.44 240.304 236.161 240.472 235.838C240.641 235.515 240.732 235.157 240.738 234.793V233.824C240.738 233.097 240.291 232.767 239.767 233.077L180.573 267.25C180.277 267.465 180.035 267.746 179.866 268.071C179.698 268.396 179.607 268.755 179.602 269.121V270.09C179.593 270.807 180.039 271.136 180.573 270.826Z" fill="#6DE0F6"/>
<path d="M238.428 235.914C238.726 235.701 238.969 235.42 239.137 235.095C239.306 234.77 239.395 234.41 239.398 234.044V233.288L239.719 233.104C240.252 232.794 240.689 233.104 240.689 233.85V234.819C240.683 235.183 240.592 235.541 240.424 235.864C240.255 236.187 240.014 236.466 239.719 236.68L180.524 270.853C179.99 271.163 179.554 270.853 179.554 270.116V269.932L238.428 235.914Z" fill="#267FE5"/>
<path d="M180.573 281.225L239.767 247.052C240.063 246.837 240.305 246.556 240.473 246.231C240.642 245.907 240.732 245.547 240.738 245.182V244.213C240.738 243.495 240.291 243.166 239.767 243.476L180.573 277.639C180.278 277.856 180.038 278.137 179.869 278.461C179.701 278.786 179.61 279.144 179.602 279.51V280.479C179.593 281.206 180.039 281.535 180.573 281.225Z" fill="#6DE0F6"/>
<path d="M238.428 246.311C238.724 246.096 238.967 245.815 239.135 245.49C239.304 245.166 239.394 244.806 239.398 244.44V243.655L239.719 243.471C240.252 243.161 240.689 243.471 240.689 244.208V245.177C240.684 245.542 240.593 245.902 240.425 246.226C240.256 246.551 240.015 246.832 239.719 247.047L180.524 281.22C179.99 281.53 179.554 281.22 179.554 280.474V280.299L238.428 246.311Z" fill="#267FE5"/>
<path d="M168.19 201.335C169.069 201.335 169.782 200.624 169.782 199.746C169.782 198.868 169.069 198.156 168.19 198.156C167.311 198.156 166.599 198.868 166.599 199.746C166.599 200.624 167.311 201.335 168.19 201.335Z" fill="#6DE0F6"/>
<path d="M168.19 200.734C167.82 200.734 167.462 200.605 167.177 200.37C166.892 200.135 166.698 199.808 166.628 199.445C166.618 199.542 166.618 199.639 166.628 199.736C166.611 199.955 166.639 200.174 166.711 200.381C166.783 200.588 166.897 200.778 167.046 200.939C167.195 201.1 167.376 201.229 167.577 201.316C167.778 201.404 167.995 201.45 168.214 201.45C168.434 201.45 168.651 201.404 168.852 201.316C169.053 201.229 169.234 201.1 169.383 200.939C169.532 200.778 169.646 200.588 169.718 200.381C169.79 200.174 169.818 199.955 169.801 199.736C169.811 199.639 169.811 199.542 169.801 199.445C169.73 199.816 169.528 200.15 169.233 200.386C168.938 200.622 168.568 200.746 168.19 200.734Z" fill="#267FE5"/>
<path d="M168.19 211.734C169.069 211.734 169.782 211.022 169.782 210.144C169.782 209.266 169.069 208.555 168.19 208.555C167.311 208.555 166.599 209.266 166.599 210.144C166.599 211.022 167.311 211.734 168.19 211.734Z" fill="#6DE0F6"/>
<path d="M168.19 211.123C167.821 211.125 167.463 210.999 167.178 210.765C166.893 210.531 166.698 210.205 166.628 209.844C166.618 209.94 166.618 210.038 166.628 210.135C166.611 210.353 166.639 210.573 166.711 210.78C166.783 210.987 166.897 211.177 167.046 211.338C167.195 211.499 167.376 211.627 167.577 211.715C167.778 211.803 167.995 211.848 168.215 211.848C168.434 211.848 168.651 211.803 168.852 211.715C169.053 211.627 169.234 211.499 169.383 211.338C169.532 211.177 169.646 210.987 169.718 210.78C169.79 210.573 169.818 210.353 169.801 210.135C169.811 210.038 169.811 209.94 169.801 209.844C169.73 210.214 169.528 210.546 169.233 210.781C168.937 211.015 168.567 211.137 168.19 211.123Z" fill="#267FE5"/>
<path d="M168.19 222.124C169.069 222.124 169.782 221.413 169.782 220.535C169.782 219.657 169.069 218.945 168.19 218.945C167.311 218.945 166.599 219.657 166.599 220.535C166.599 221.413 167.311 222.124 168.19 222.124Z" fill="#6DE0F6"/>
<path d="M168.19 221.523C167.82 221.525 167.461 221.397 167.175 221.162C166.89 220.926 166.696 220.598 166.628 220.234C166.618 220.334 166.618 220.435 166.628 220.535C166.659 220.934 166.84 221.306 167.134 221.578C167.428 221.849 167.814 222 168.215 222C168.615 222 169.001 221.849 169.295 221.578C169.589 221.306 169.77 220.934 169.801 220.535C169.811 220.435 169.811 220.334 169.801 220.234C169.732 220.606 169.531 220.941 169.235 221.177C168.94 221.414 168.569 221.537 168.19 221.523Z" fill="#267FE5"/>
<path d="M168.19 232.523C169.069 232.523 169.782 231.811 169.782 230.933C169.782 230.055 169.069 229.344 168.19 229.344C167.311 229.344 166.599 230.055 166.599 230.933C166.599 231.811 167.311 232.523 168.19 232.523Z" fill="#6DE0F6"/>
<path d="M168.19 231.922C167.82 231.924 167.461 231.796 167.175 231.56C166.89 231.324 166.696 230.996 166.628 230.633C166.618 230.733 166.618 230.833 166.628 230.933C166.659 231.332 166.84 231.705 167.134 231.976C167.428 232.248 167.814 232.399 168.215 232.399C168.615 232.399 169.001 232.248 169.295 231.976C169.589 231.705 169.77 231.332 169.801 230.933C169.811 230.833 169.811 230.733 169.801 230.633C169.732 231.005 169.531 231.339 169.235 231.576C168.94 231.812 168.569 231.935 168.19 231.922Z" fill="#267FE5"/>
<path d="M168.19 242.921C169.069 242.921 169.782 242.209 169.782 241.332C169.782 240.454 169.069 239.742 168.19 239.742C167.311 239.742 166.599 240.454 166.599 241.332C166.599 242.209 167.311 242.921 168.19 242.921Z" fill="#6DE0F6"/>
<path d="M168.19 242.32C167.82 242.32 167.462 242.191 167.177 241.956C166.892 241.721 166.698 241.394 166.628 241.031C166.618 241.128 166.618 241.225 166.628 241.322C166.611 241.541 166.639 241.76 166.711 241.967C166.783 242.174 166.897 242.364 167.046 242.525C167.195 242.686 167.376 242.814 167.577 242.902C167.778 242.99 167.995 243.035 168.214 243.035C168.434 243.035 168.651 242.99 168.852 242.902C169.053 242.814 169.234 242.686 169.383 242.525C169.532 242.364 169.646 242.174 169.718 241.967C169.79 241.76 169.818 241.541 169.801 241.322C169.811 241.225 169.811 241.128 169.801 241.031C169.73 241.402 169.528 241.736 169.233 241.972C168.938 242.208 168.568 242.332 168.19 242.32Z" fill="#267FE5"/>
<path d="M168.19 253.312C169.069 253.312 169.782 252.6 169.782 251.722C169.782 250.844 169.069 250.133 168.19 250.133C167.311 250.133 166.599 250.844 166.599 251.722C166.599 252.6 167.311 253.312 168.19 253.312Z" fill="#6DE0F6"/>
<path d="M168.19 252.672C167.82 252.674 167.461 252.545 167.175 252.31C166.89 252.074 166.696 251.746 166.628 251.383C166.618 251.483 166.618 251.583 166.628 251.683C166.611 251.902 166.639 252.121 166.711 252.328C166.783 252.536 166.897 252.725 167.046 252.886C167.195 253.047 167.376 253.176 167.577 253.264C167.778 253.351 167.995 253.397 168.215 253.397C168.434 253.397 168.651 253.351 168.852 253.264C169.053 253.176 169.234 253.047 169.383 252.886C169.532 252.725 169.646 252.536 169.718 252.328C169.79 252.121 169.818 251.902 169.801 251.683C169.811 251.583 169.811 251.483 169.801 251.383C169.732 251.755 169.531 252.089 169.235 252.326C168.94 252.562 168.569 252.685 168.19 252.672Z" fill="#267FE5"/>
<path d="M168.19 263.71C169.069 263.71 169.782 262.999 169.782 262.121C169.782 261.243 169.069 260.531 168.19 260.531C167.311 260.531 166.599 261.243 166.599 262.121C166.599 262.999 167.311 263.71 168.19 263.71Z" fill="#6DE0F6"/>
<path d="M168.19 263.109C167.82 263.111 167.461 262.983 167.175 262.748C166.89 262.512 166.696 262.184 166.628 261.82C166.618 261.92 166.618 262.021 166.628 262.121C166.659 262.52 166.84 262.892 167.134 263.164C167.428 263.435 167.814 263.586 168.215 263.586C168.615 263.586 169.001 263.435 169.295 263.164C169.589 262.892 169.77 262.52 169.801 262.121C169.811 262.021 169.811 261.92 169.801 261.82C169.732 262.192 169.531 262.527 169.235 262.763C168.94 263 168.569 263.123 168.19 263.109Z" fill="#267FE5"/>
<path d="M168.19 274.109C169.069 274.109 169.782 273.397 169.782 272.519C169.782 271.641 169.069 270.93 168.19 270.93C167.311 270.93 166.599 271.641 166.599 272.519C166.599 273.397 167.311 274.109 168.19 274.109Z" fill="#6DE0F6"/>
<path d="M168.19 273.508C167.82 273.508 167.462 273.379 167.177 273.144C166.892 272.908 166.698 272.581 166.628 272.219C166.618 272.315 166.618 272.413 166.628 272.509C166.611 272.728 166.639 272.948 166.711 273.155C166.783 273.362 166.897 273.552 167.046 273.713C167.195 273.874 167.376 274.002 167.577 274.09C167.778 274.178 167.995 274.223 168.214 274.223C168.434 274.223 168.651 274.178 168.852 274.09C169.053 274.002 169.234 273.874 169.383 273.713C169.532 273.552 169.646 273.362 169.718 273.155C169.79 272.948 169.818 272.728 169.801 272.509C169.811 272.413 169.811 272.315 169.801 272.219C169.73 272.59 169.528 272.923 169.233 273.159C168.938 273.396 168.568 273.519 168.19 273.508Z" fill="#267FE5"/>
<path d="M168.19 284.499C169.069 284.499 169.782 283.788 169.782 282.91C169.782 282.032 169.069 281.32 168.19 281.32C167.311 281.32 166.599 282.032 166.599 282.91C166.599 283.788 167.311 284.499 168.19 284.499Z" fill="#6DE0F6"/>
<path d="M168.19 283.898C167.82 283.9 167.461 283.772 167.175 283.537C166.89 283.301 166.696 282.973 166.628 282.609C166.579 282.841 166.583 283.08 166.639 283.31C166.694 283.54 166.801 283.754 166.95 283.938C167.099 284.121 167.287 284.269 167.501 284.371C167.715 284.473 167.949 284.525 168.185 284.525C168.422 284.525 168.656 284.473 168.87 284.371C169.083 284.269 169.272 284.121 169.421 283.938C169.57 283.754 169.676 283.54 169.732 283.31C169.788 283.08 169.791 282.841 169.743 282.609C169.675 282.971 169.483 283.298 169.199 283.533C168.916 283.769 168.559 283.898 168.19 283.898Z" fill="#267FE5"/>
<path d="M145.483 267.703C145.14 267.687 144.807 267.587 144.512 267.412L142.145 266.045C141.437 265.537 140.859 264.872 140.454 264.101C140.05 263.331 139.831 262.476 139.816 261.607V197.797C139.777 197.416 139.838 197.032 139.993 196.682C140.148 196.332 140.391 196.028 140.699 195.8C140.965 195.668 141.262 195.609 141.559 195.629C141.856 195.649 142.142 195.749 142.387 195.917L144.755 197.283C145.465 197.789 146.046 198.454 146.453 199.225C146.859 199.996 147.078 200.851 147.094 201.722V265.522C147.132 265.905 147.07 266.291 146.913 266.643C146.757 266.995 146.511 267.3 146.201 267.528C145.982 267.651 145.734 267.711 145.483 267.703ZM141.359 196.101C141.202 196.099 141.048 196.139 140.912 196.217C140.677 196.403 140.494 196.645 140.38 196.922C140.266 197.199 140.226 197.5 140.262 197.797V261.607C140.273 262.394 140.469 263.167 140.833 263.866C141.197 264.564 141.719 265.168 142.358 265.629L144.726 266.995C144.9 267.12 145.104 267.196 145.317 267.216C145.53 267.237 145.744 267.201 145.939 267.111C146.171 266.922 146.352 266.677 146.464 266.399C146.576 266.121 146.616 265.819 146.579 265.522V201.722C146.568 200.935 146.373 200.161 146.009 199.463C145.645 198.764 145.122 198.161 144.483 197.7L142.115 196.333C141.888 196.19 141.627 196.11 141.359 196.101Z" fill="#161242"/>
<path d="M106.084 245.327C105.742 245.314 105.408 245.214 105.114 245.037L102.746 243.67C102.036 243.164 101.455 242.499 101.049 241.728C100.643 240.957 100.423 240.102 100.408 239.231V175.431C100.367 175.049 100.428 174.663 100.583 174.311C100.737 173.959 100.982 173.654 101.291 173.425C101.559 173.293 101.857 173.234 102.156 173.254C102.454 173.274 102.741 173.374 102.989 173.541L105.357 174.908C106.064 175.416 106.643 176.082 107.047 176.852C107.451 177.623 107.67 178.477 107.686 179.347V243.156C107.724 243.537 107.663 243.921 107.508 244.271C107.353 244.621 107.11 244.925 106.803 245.153C106.583 245.273 106.335 245.333 106.084 245.327ZM102.96 243.253L105.328 244.62C105.5 244.744 105.702 244.819 105.914 244.84C106.125 244.86 106.338 244.825 106.531 244.736C106.764 244.549 106.946 244.306 107.06 244.03C107.174 243.754 107.215 243.453 107.181 243.156V179.347C107.17 178.56 106.974 177.786 106.61 177.088C106.247 176.389 105.724 175.786 105.085 175.325L102.717 173.958C102.543 173.834 102.339 173.757 102.126 173.737C101.913 173.716 101.699 173.753 101.504 173.842C101.272 174.031 101.091 174.276 100.979 174.554C100.867 174.832 100.827 175.134 100.864 175.431V239.231C100.875 240.019 101.07 240.792 101.434 241.491C101.798 242.189 102.321 242.793 102.96 243.253Z" fill="#161242"/>
<path d="M125.784 256.55C125.439 256.538 125.104 256.434 124.813 256.25L122.445 254.884C121.736 254.38 121.154 253.716 120.748 252.947C120.342 252.178 120.122 251.324 120.107 250.454V186.616C120.067 186.234 120.129 185.849 120.286 185.498C120.443 185.148 120.689 184.845 121 184.619C121.265 184.482 121.562 184.421 121.86 184.441C122.158 184.462 122.444 184.564 122.688 184.735L125.056 186.102C125.764 186.606 126.344 187.27 126.749 188.039C127.154 188.809 127.371 189.662 127.385 190.531V254.341C127.426 254.722 127.366 255.107 127.211 255.457C127.056 255.808 126.812 256.111 126.502 256.337C126.289 256.478 126.039 256.552 125.784 256.55ZM121.659 184.949C121.503 184.946 121.348 184.986 121.213 185.065C120.977 185.25 120.794 185.493 120.68 185.769C120.566 186.046 120.526 186.348 120.563 186.645V250.454C120.573 251.24 120.768 252.013 121.132 252.71C121.497 253.407 122.019 254.009 122.659 254.467L125.027 255.833C125.199 255.957 125.401 256.033 125.613 256.053C125.824 256.074 126.037 256.038 126.23 255.95C126.466 255.765 126.649 255.522 126.763 255.245C126.877 254.968 126.917 254.667 126.88 254.37V190.531C126.87 189.745 126.675 188.973 126.311 188.276C125.946 187.579 125.424 186.977 124.784 186.519L122.416 185.152C122.189 185.01 121.928 184.93 121.659 184.92V184.949Z" fill="#161242"/>
<path opacity="0.5" d="M230.83 131L228.598 143.153L240.204 136.495L230.83 131Z" fill="#13113D"/>
<path d="M169.85 72.2812L167.142 73.8513L169.85 76.9332V99.8055C169.85 104.797 172.887 110.592 176.642 112.753L226.463 141.489L226.618 141.567L228.229 143.398L230.762 141.925L230.868 141.857L231.101 141.722C232.431 140.84 233.265 138.979 233.265 136.372V108.848L169.85 72.2812Z" fill="url(#paint6_linear_2199_613)"/>
<path d="M167.142 73.8516L230.548 110.408V137.933C230.548 142.924 227.511 145.221 223.755 143.059L173.935 114.324C170.179 112.163 167.142 106.367 167.142 101.366V73.8516Z" fill="#6DE0F6"/>
<path opacity="0.5" d="M165.657 180.845L153.518 187.9L99.0393 156.49L110.325 150.016L165.657 180.845Z" fill="#38025B"/>
<path style="mix-blend-mode:lighten" d="M229.481 0H106.977V145.297H107.055C106.773 146.867 107.55 148.408 109.471 149.522L161.533 179.567C165.23 181.699 171.693 181.427 175.973 178.966L225.949 150.152C228.336 148.767 229.491 147.003 229.432 145.307H229.481V0Z" fill="url(#paint7_linear_2199_613)"/>
<path d="M108.103 109.391L105.396 110.961L108.103 114.043V136.915C108.103 141.906 111.14 147.702 114.896 149.863L164.716 178.599L164.872 178.676L166.482 180.508L169.015 179.035L169.112 178.967L169.355 178.831C170.684 177.949 171.519 176.088 171.519 173.481V145.957L108.103 109.391Z" fill="url(#paint8_linear_2199_613)"/>
<path d="M105.396 110.961L168.802 147.518V175.042C168.802 180.033 165.755 182.33 162.009 180.169L112.188 151.433C108.433 149.272 105.396 143.476 105.396 138.485V110.961Z" fill="url(#paint9_linear_2199_613)"/>
<path opacity="0.5" d="M240.388 136.602L230.83 131L240.388 136.602Z" fill="#38025B"/>
</g>
<defs>
<linearGradient id="paint0_linear_2199_613" x1="38.9348" y1="236.934" x2="6.712" y2="269.198" gradientUnits="userSpaceOnUse">
<stop stop-color="#D4088C"/>
<stop offset="0.04" stop-color="#CC088C"/>
<stop offset="0.46" stop-color="#85078A"/>
<stop offset="0.76" stop-color="#590689"/>
<stop offset="0.91" stop-color="#480689"/>
</linearGradient>
<linearGradient id="paint1_linear_2199_613" x1="61.7953" y1="92.049" x2="42.9015" y2="92.049" gradientUnits="userSpaceOnUse">
<stop stop-color="#6EE8FC"/>
<stop offset="0.16" stop-color="#6AE2FB"/>
<stop offset="0.37" stop-color="#5ED1F7"/>
<stop offset="0.61" stop-color="#4BB5F1"/>
<stop offset="0.87" stop-color="#308EE8"/>
<stop offset="0.96" stop-color="#267FE5"/>
</linearGradient>
<linearGradient id="paint2_linear_2199_613" x1="-8680.78" y1="25382.3" x2="-7346.14" y2="26045.2" gradientUnits="userSpaceOnUse">
<stop stop-color="#6EE8FC"/>
<stop offset="0.16" stop-color="#6AE2FB"/>
<stop offset="0.37" stop-color="#5ED1F7"/>
<stop offset="0.61" stop-color="#4BB5F1"/>
<stop offset="0.87" stop-color="#308EE8"/>
<stop offset="0.96" stop-color="#267FE5"/>
</linearGradient>
<linearGradient id="paint3_linear_2199_613" x1="62.6104" y1="262.119" x2="273.76" y2="262.119" gradientUnits="userSpaceOnUse">
<stop stop-color="#D4088C"/>
<stop offset="0.23" stop-color="#8D139B"/>
<stop offset="0.51" stop-color="#6EE1F8"/>
<stop offset="0.78" stop-color="#6EE8FC"/>
<stop offset="1" stop-color="#6EE8FC"/>
</linearGradient>
<linearGradient id="paint4_linear_2199_613" x1="70.3445" y1="205.781" x2="270.83" y2="205.781" gradientUnits="userSpaceOnUse">
<stop stop-color="#A31FA9"/>
<stop offset="0.07" stop-color="#8B17A0"/>
<stop offset="0.15" stop-color="#740F98"/>
<stop offset="0.24" stop-color="#640A92"/>
<stop offset="0.34" stop-color="#5B078F"/>
<stop offset="0.48" stop-color="#58068E"/>
<stop offset="0.63" stop-color="#4D22A3"/>
<stop offset="0.94" stop-color="#3168DA"/>
<stop offset="1" stop-color="#2C75E4"/>
</linearGradient>
<linearGradient id="paint5_linear_2199_613" x1="86.5104" y1="147.551" x2="241.434" y2="185.298" gradientUnits="userSpaceOnUse">
<stop stop-color="#8D139B"/>
<stop offset="0.17" stop-color="#851BA1"/>
<stop offset="0.43" stop-color="#6E33B2"/>
<stop offset="0.76" stop-color="#4958CD"/>
<stop offset="1" stop-color="#2979E4"/>
</linearGradient>
<linearGradient id="paint6_linear_2199_613" x1="14956.9" y1="7353.26" x2="24322.2" y2="9354.51" gradientUnits="userSpaceOnUse">
<stop stop-color="#8D139B"/>
<stop offset="0.17" stop-color="#851BA1"/>
<stop offset="0.43" stop-color="#6E33B2"/>
<stop offset="0.76" stop-color="#4958CD"/>
<stop offset="1" stop-color="#2979E4"/>
</linearGradient>
<linearGradient id="paint7_linear_2199_613" x1="168.229" y1="180.981" x2="168.229" y2="0" gradientUnits="userSpaceOnUse">
<stop stop-color="#267FE5"/>
<stop offset="0.61" stop-color="#133A76"/>
<stop offset="1" stop-color="#071033"/>
</linearGradient>
<linearGradient id="paint8_linear_2199_613" x1="10687.8" y1="10113.4" x2="20053" y2="12114.7" gradientUnits="userSpaceOnUse">
<stop stop-color="#8D139B"/>
<stop offset="0.17" stop-color="#851BA1"/>
<stop offset="0.43" stop-color="#6E33B2"/>
<stop offset="0.76" stop-color="#4958CD"/>
<stop offset="1" stop-color="#2979E4"/>
</linearGradient>
<linearGradient id="paint9_linear_2199_613" x1="-153231" y1="-44849.1" x2="-145361" y2="-46858.1" gradientUnits="userSpaceOnUse">
<stop stop-color="#8D139B"/>
<stop offset="0.17" stop-color="#851BA1"/>
<stop offset="0.43" stop-color="#6E33B2"/>
<stop offset="0.76" stop-color="#4958CD"/>
<stop offset="1" stop-color="#2979E4"/>
</linearGradient>
<clipPath id="clip0_2199_613">
<rect width="340" height="330" fill="white"/>
</clipPath>
</defs>
</svg>
